<svg width="280" height="74" viewBox="0 0 280 74" fill="none" xmlns="http://www.w3.org/2000/svg">
<path d="M278.955 54.344C278.955 57.368 277.995 60.2 276.075 62.84C274.203 65.48 271.587 67.544 268.227 69.032L267.867 67.88C269.931 66.824 271.707 65.456 273.195 63.776C274.683 62.096 275.499 60.224 275.643 58.16C275.019 58.784 274.323 59.288 273.555 59.672C272.787 60.056 271.995 60.248 271.179 60.248C269.739 60.248 268.635 59.912 267.867 59.24C267.099 58.568 266.715 57.608 266.715 56.36C266.715 55.064 267.051 53.864 267.723 52.76C268.395 51.656 269.283 50.792 270.387 50.168C271.539 49.496 272.811 49.16 274.203 49.16C275.739 49.16 276.915 49.616 277.731 50.528C278.547 51.392 278.955 52.664 278.955 54.344Z" fill="#1B2B3D"/>
<path d="M252.266 33.9681C250.49 39.2481 248.786 43.6161 247.154 47.0721C245.522 50.4801 243.914 53.1441 242.33 55.0641C240.794 56.9361 239.21 58.2801 237.578 59.0961C235.946 59.8641 234.218 60.2481 232.394 60.2481C230.378 60.2481 228.818 59.8161 227.714 58.9521C226.658 58.0881 226.058 56.8401 225.914 55.2081C225.818 53.5761 226.13 51.6321 226.85 49.3761L233.834 28.1361C234.314 26.7441 234.41 25.8081 234.122 25.3281C233.882 24.8001 233.474 24.5361 232.898 24.5361C232.274 24.5361 231.578 24.8961 230.81 25.6161C230.042 26.2881 229.226 27.8241 228.362 30.2241L227.066 33.6801H225.698L227.498 28.4241C228.218 26.4081 229.106 24.8721 230.162 23.8161C231.266 22.7601 232.418 22.0401 233.618 21.6561C234.866 21.2241 236.042 21.0081 237.146 21.0081C239.306 21.0081 240.914 21.4881 241.97 22.4481C243.026 23.3601 243.602 24.6801 243.698 26.4081C243.794 28.0881 243.458 30.1041 242.69 32.4561L236.21 51.8961C235.154 55.0641 235.394 56.6481 236.93 56.6481C237.842 56.6481 238.874 56.0481 240.026 54.8481C241.178 53.6481 242.378 51.9921 243.626 49.8801C244.922 47.7681 246.194 45.2961 247.442 42.4641C248.69 39.6321 249.89 36.5841 251.042 33.3201C252.194 30.0561 253.202 26.7201 254.066 23.3121L252.266 33.9681ZM255.794 53.1201C255.458 54.3201 255.314 55.2321 255.362 55.8561C255.41 56.4321 255.818 56.7201 256.586 56.7201C257.45 56.7201 258.242 56.3121 258.962 55.4961C259.73 54.6321 260.474 53.1441 261.194 51.0321L262.562 47.3601H263.93L261.986 52.8321C261.362 54.7041 260.522 56.1921 259.466 57.2961C258.458 58.3521 257.33 59.0961 256.082 59.5281C254.882 60.0081 253.634 60.2481 252.338 60.2481C251.042 60.2481 249.938 60.0321 249.026 59.6001C248.162 59.1681 247.49 58.5681 247.01 57.8001C246.53 56.8881 246.314 55.8081 246.362 54.5601C246.458 53.2641 246.698 51.8001 247.082 50.1681L254.354 22.0161C256.322 21.9681 258.17 21.8721 259.898 21.7281C261.674 21.5841 263.306 21.3441 264.794 21.0081L255.794 53.1201Z" fill="#1B2B3D"/>
<path d="M209.692 22.4481C208.588 22.4481 207.412 23.1201 206.164 24.4641C204.964 25.7601 203.764 27.5121 202.564 29.7201C201.412 31.9281 200.356 34.4001 199.396 37.1361C198.484 39.8721 197.74 42.7041 197.164 45.6321C196.636 48.5121 196.372 51.2721 196.372 53.9121C196.372 55.6401 196.564 56.8881 196.948 57.6561C197.38 58.4241 198.004 58.8081 198.82 58.8081C199.924 58.8081 201.076 58.1841 202.276 56.9361C203.476 55.6401 204.652 53.9121 205.804 51.7521C206.956 49.5921 207.988 47.1681 208.9 44.4801C209.86 41.7441 210.628 38.9121 211.204 35.9841C211.78 33.0561 212.068 30.2241 212.068 27.4881C212.068 25.4721 211.852 24.1281 211.42 23.4561C211.036 22.7841 210.46 22.4481 209.692 22.4481ZM186.724 48.3681C186.724 46.1601 187.012 43.8081 187.588 41.3121C188.212 38.8161 189.148 36.3681 190.396 33.9681C191.644 31.5681 193.18 29.4081 195.004 27.4881C196.876 25.5201 199.06 23.9601 201.556 22.8081C204.1 21.6081 206.932 21.0081 210.052 21.0081C213.748 21.0081 216.604 22.0161 218.62 24.0321C220.684 26.0481 221.716 29.0001 221.716 32.8881C221.716 35.0961 221.404 37.4481 220.78 39.9441C220.204 42.4401 219.292 44.8881 218.044 47.2881C216.796 49.6881 215.236 51.8721 213.364 53.8401C211.54 55.7601 209.356 57.3201 206.812 58.5201C204.316 59.6721 201.508 60.2481 198.388 60.2481C194.692 60.2481 191.812 59.2401 189.748 57.2241C187.732 55.2081 186.724 52.2561 186.724 48.3681Z" fill="#1B2B3D"/>
<path d="M173.23 54.8481L165.526 63.5601L159.766 28.2081C159.526 26.9121 159.286 26.0241 159.046 25.5441C158.806 25.0641 158.422 24.8241 157.894 24.8241C157.414 24.8241 156.934 25.1601 156.454 25.8321C155.974 26.4561 155.326 27.8961 154.51 30.1521L153.214 33.6801H151.846L153.646 28.4241C154.654 25.4961 155.926 23.5281 157.462 22.5201C158.998 21.5121 160.678 21.0081 162.502 21.0081C164.47 21.0081 166.054 21.5601 167.254 22.6641C168.454 23.7201 169.27 25.7601 169.702 28.7841L173.23 54.8481ZM156.022 69.2481C158.278 68.1441 160.606 66.6321 163.006 64.7121C165.406 62.8401 167.854 60.2961 170.35 57.0801C173.038 53.7681 175.39 50.1921 177.406 46.3521C179.422 42.4641 180.91 38.7441 181.87 35.1921C180.718 34.5201 179.614 33.7281 178.558 32.8161C177.55 31.8561 176.734 30.8001 176.11 29.6481C175.486 28.4961 175.198 27.2481 175.246 25.9041C175.246 24.3681 175.678 23.1681 176.542 22.3041C177.406 21.4401 178.582 21.0081 180.07 21.0081C181.75 21.0081 182.95 21.5841 183.67 22.7361C184.438 23.8881 184.822 25.4961 184.822 27.5601C184.822 29.8161 184.438 32.2881 183.67 34.9761C182.902 37.6641 181.846 40.4481 180.502 43.3281C179.158 46.1601 177.646 48.9201 175.966 51.6081C174.286 54.2961 172.51 56.7441 170.638 58.9521C169.15 60.8241 167.47 62.5761 165.598 64.2081C163.774 65.8401 161.83 67.3041 159.766 68.6001C157.75 69.8961 155.638 70.9281 153.43 71.6961C152.374 72.0801 151.414 72.3441 150.55 72.4881C149.686 72.6801 148.942 72.7761 148.318 72.7761C146.782 72.7761 145.582 72.4161 144.718 71.6961C143.806 71.0241 143.35 70.0401 143.35 68.7441C143.35 67.4961 143.83 66.4401 144.79 65.5761C145.702 64.7121 146.878 64.2801 148.318 64.2801C149.854 64.2801 151.246 64.7121 152.494 65.5761C153.79 66.4881 154.966 67.7121 156.022 69.2481Z" fill="#1B2B3D"/>
<path d="M128.538 59.2401H118.386L127.17 28.1361C127.506 26.8401 127.602 25.9281 127.458 25.4001C127.362 24.8241 127.002 24.5361 126.378 24.5361C125.514 24.5361 124.722 24.9681 124.002 25.8321C123.282 26.6481 122.514 28.1121 121.698 30.2241L120.33 33.8961H118.962L120.906 28.4241C121.626 26.5041 122.49 25.0161 123.498 23.9601C124.506 22.9041 125.634 22.1601 126.882 21.7281C128.178 21.2481 129.498 21.0081 130.842 21.0081C132.378 21.0081 133.554 21.3201 134.37 21.9441C135.186 22.5201 135.738 23.3121 136.026 24.3201C136.314 25.3281 136.41 26.4321 136.314 27.6321C136.266 28.7841 136.098 29.9361 135.81 31.0881L128.538 59.2401ZM146.97 22.5921C146.01 22.5921 144.978 22.8801 143.874 23.4561C142.77 24.0321 141.642 25.0641 140.49 26.5521C139.338 28.0401 138.114 30.1041 136.818 32.7441C135.57 35.3841 134.274 38.7681 132.93 42.8961C131.634 46.9761 130.29 51.9201 128.898 57.7281L130.482 48.0081C132.018 42.7281 133.41 38.3601 134.658 34.9041C135.906 31.4481 137.154 28.7121 138.402 26.6961C139.698 24.6321 141.042 23.1681 142.434 22.3041C143.874 21.4401 145.506 21.0081 147.33 21.0081C149.202 21.0081 150.642 21.5601 151.65 22.6641C152.658 23.7681 153.162 25.1601 153.162 26.8401C153.162 28.1841 152.85 29.4321 152.226 30.5841C151.65 31.6881 150.834 32.6001 149.778 33.3201C148.77 33.9921 147.618 34.3281 146.322 34.3281C144.93 34.3281 143.85 33.9681 143.082 33.2481C142.314 32.4801 141.93 31.4001 141.93 30.0081C141.93 28.8561 142.194 27.8001 142.722 26.8401C143.25 25.8321 143.97 24.9681 144.882 24.2481C145.794 23.5281 146.802 23.0481 147.906 22.8081C147.762 22.7601 147.618 22.7121 147.474 22.6641C147.33 22.6161 147.162 22.5921 146.97 22.5921Z" fill="#566473"/>
<path d="M89.7573 56.3601C90.5253 56.3601 91.3653 55.9521 92.2773 55.1361C93.1893 54.3201 94.1253 53.1441 95.0853 51.6081C96.0453 50.0241 96.9813 48.1041 97.8933 45.8481C98.8053 43.5921 99.6453 40.9761 100.413 38.0001L98.8293 45.8481C97.6293 49.4001 96.3093 52.2321 94.8693 54.3441C93.4293 56.4561 91.8933 57.9681 90.2613 58.8801C88.6293 59.7921 86.9253 60.2481 85.1493 60.2481C82.4613 60.2481 80.4453 59.4561 79.1013 57.8721C77.7573 56.2881 77.0853 54.1281 77.0853 51.3921C77.0853 48.8001 77.5173 46.0881 78.3813 43.2561C79.2933 40.4241 80.4933 37.6881 81.9813 35.0481C83.5173 32.4081 85.2213 30.0321 87.0933 27.9201C89.0133 25.8081 91.0293 24.1281 93.1413 22.8801C95.3013 21.6321 97.4133 21.0081 99.4773 21.0081C101.061 21.0081 102.285 21.6321 103.149 22.8801C104.013 24.1281 104.277 26.0721 103.941 28.7121L103.149 29.1441C103.389 27.4161 103.293 26.0721 102.861 25.1121C102.477 24.1521 101.805 23.6721 100.845 23.6721C99.8853 23.6721 98.8053 24.2241 97.6053 25.3281C96.4533 26.4321 95.3013 27.9441 94.1493 29.8641C92.9973 31.7841 91.9173 33.9681 90.9093 36.4161C89.9493 38.8161 89.1813 41.3601 88.6053 44.0481C88.0293 46.6881 87.7413 49.3041 87.7413 51.8961C87.7413 53.5281 87.9093 54.6801 88.2453 55.3521C88.5813 56.0241 89.0853 56.3601 89.7573 56.3601ZM105.021 22.0881C107.085 22.0401 108.957 21.9441 110.637 21.8001C112.317 21.6081 113.925 21.3441 115.461 21.0081L106.029 53.1201C105.885 53.7441 105.765 54.3441 105.669 54.9201C105.621 55.4481 105.693 55.8801 105.885 56.2161C106.125 56.5521 106.509 56.7201 107.037 56.7201C107.661 56.7201 108.357 56.3601 109.125 55.6401C109.893 54.8721 110.685 53.3361 111.501 51.0321L112.797 47.5761H114.165L112.365 52.8321C111.693 54.8001 110.829 56.3121 109.773 57.3681C108.717 58.4241 107.589 59.1681 106.389 59.6001C105.189 60.0321 104.013 60.2481 102.861 60.2481C100.365 60.2481 98.5893 59.5041 97.5333 58.0161C96.8133 56.9601 96.4773 55.6641 96.5253 54.1281C96.6213 52.5441 96.9573 50.7441 97.5333 48.7281L105.021 22.0881Z" fill="#566473"/>
<path d="M52.8393 43.6161C54.8073 42.8481 56.6793 41.9841 58.4553 41.0241C60.2313 40.0641 61.7433 39.0081 62.9913 37.8561C64.8633 36.1761 66.3513 34.2321 67.4553 32.0241C68.6073 29.7681 69.1833 27.3441 69.1833 24.7521C69.1833 23.7921 69.0873 23.1681 68.8953 22.8801C68.7033 22.5441 68.4153 22.3761 68.0313 22.3761C66.9753 22.3761 65.8233 22.9281 64.5753 24.0321C63.3753 25.0881 62.1753 26.5281 60.9753 28.3521C59.7753 30.1281 58.6713 32.1681 57.6633 34.4721C56.7033 36.7761 55.9113 39.1761 55.2873 41.6721C54.7113 44.1681 54.4233 46.5921 54.4233 48.9441C54.4233 51.6321 54.9273 53.4801 55.9353 54.4881C56.9913 55.4481 58.3353 55.9281 59.9673 55.9281C61.2633 55.9281 62.8713 55.4961 64.7913 54.6321C66.7113 53.7681 68.6073 52.2321 70.4793 50.0241L71.6313 50.6001C70.6233 52.1841 69.3033 53.7201 67.6713 55.2081C66.0393 56.6961 64.1433 57.9201 61.9833 58.8801C59.8233 59.7921 57.4713 60.2481 54.9273 60.2481C52.7673 60.2481 50.8233 59.8641 49.0953 59.0961C47.4153 58.3281 46.0713 57.2001 45.0633 55.7121C44.1033 54.1761 43.6233 52.3041 43.6233 50.0961C43.6233 47.5521 44.0313 44.9361 44.8473 42.2481C45.7113 39.5601 46.9113 36.9681 48.4473 34.4721C49.9833 31.9281 51.8313 29.6481 53.9913 27.6321C56.1513 25.5681 58.5513 23.9601 61.1913 22.8081C63.8313 21.6081 66.6393 21.0081 69.6153 21.0081C71.7273 21.0081 73.5033 21.4881 74.9433 22.4481C76.3833 23.3601 77.1033 24.7761 77.1033 26.6961C77.1033 28.5681 76.5753 30.3201 75.5193 31.9521C74.5113 33.5841 73.1433 35.0721 71.4153 36.4161C69.6873 37.7601 67.7433 38.9601 65.5833 40.0161C63.4713 41.0721 61.2873 41.9841 59.0313 42.7521C56.8233 43.5201 54.7353 44.1201 52.7673 44.5521L52.8393 43.6161Z" fill="#566473"/>
<path d="M32.24 53.12C31.808 54.272 31.688 55.16 31.88 55.784C32.12 56.408 32.576 56.72 33.248 56.72C33.872 56.72 34.544 56.36 35.264 55.64C36.032 54.872 36.824 53.336 37.64 51.032L38.864 47.576H40.232L38.504 52.832C37.88 54.8 37.04 56.336 35.984 57.44C34.928 58.496 33.776 59.216 32.528 59.6C31.328 60.032 30.152 60.248 29 60.248C26.024 60.248 24.128 59.144 23.312 56.936C22.88 56.024 22.688 54.896 22.736 53.552C22.784 52.16 23.072 50.576 23.6 48.8L33.608 11.216C34.088 9.584 34.04 8.384 33.464 7.616C32.888 6.848 31.424 6.464 29.072 6.464L29.504 4.952C32.912 4.904 35.96 4.64 38.648 4.16C41.336 3.632 43.904 2.912 46.352 2L32.24 53.12ZM14.96 56.648C15.776 56.648 16.736 56.12 17.84 55.064C18.944 54.008 20.12 52.448 21.368 50.384C22.616 48.272 23.816 45.704 24.968 42.68C26.12 39.608 27.152 36.104 28.064 32.168L26.984 39.944C25.4 44.552 23.816 48.368 22.232 51.392C20.696 54.416 18.992 56.648 17.12 58.088C15.296 59.528 13.112 60.248 10.568 60.248C8.984 60.248 7.544 59.888 6.248 59.168C4.952 58.448 3.92 57.368 3.152 55.928C2.384 54.44 2 52.52 2 50.168C2 47.96 2.336 45.56 3.008 42.968C3.728 40.328 4.76 37.736 6.104 35.192C7.496 32.648 9.152 30.296 11.072 28.136C13.04 25.976 15.272 24.248 17.768 22.952C20.264 21.656 23 21.008 25.976 21.008C27.512 21.008 28.64 21.368 29.36 22.088C30.128 22.76 30.584 23.72 30.728 24.968L30.152 26.408C29.96 25.16 29.624 24.224 29.144 23.6C28.664 22.976 27.944 22.664 26.984 22.664C25.736 22.664 24.44 23.24 23.096 24.392C21.752 25.496 20.456 27.032 19.208 29C18.008 30.92 16.904 33.128 15.896 35.624C14.888 38.072 14.096 40.688 13.52 43.472C12.944 46.208 12.656 48.944 12.656 51.68C12.656 53.312 12.824 54.56 13.16 55.424C13.544 56.24 14.144 56.648 14.96 56.648Z" fill="#566473"/>
</svg>
